{
	"asset":{
		"generator":"Khronos glTF Blender I/O v4.4.56",
		"version":"2.0"
	},
	"scene":0,
	"scenes":[
		{
			"name":"Scene",
			"nodes":[
				8
			]
		}
	],
	"nodes":[
		{
			"mesh":0,
			"name":"Object_6"
		},
		{
			"children":[
				0
			],
			"name":"obj1_1"
		},
		{
			"name":"Object_8"
		},
		{
			"children":[
				2
			],
			"name":"obj2_2"
		},
		{
			"mesh":1,
			"name":"Object_4"
		},
		{
			"children":[
				4
			],
			"name":"pine1_0"
		},
		{
			"children":[
				1,
				3,
				5
			],
			"name":"GLTF_SceneRootNode",
			"rotation":[
				0.70710688829422,
				0,
				0,
				0.7071066498756409
			]
		},
		{
			"children":[
				6
			],
			"name":"root"
		},
		{
			"children":[
				7
			],
			"name":"Sketchfab_model",
			"rotation":[
				-0.70710688829422,
				0,
				0,
				0.7071066498756409
			]
		}
	],
	"materials":[
		{
			"name":"mat1"
		},
		{
			"alphaCutoff":0.8683333396911621,
			"alphaMode":"MASK",
			"doubleSided":true,
			"name":"pine",
			"pbrMetallicRoughness":{
				"baseColorTexture":{
					"index":0
				},
				"metallicFactor":0.9107576012611389,
				"roughnessFactor":0.953181803226471
			}
		}
	],
	"meshes":[
		{
			"name":"Object_1",
			"primitives":[
				{
					"attributes":{
						"POSITION":0,
						"NORMAL":1,
						"TEXCOORD_0":2
					},
					"indices":3,
					"material":0
				}
			]
		},
		{
			"name":"Object_0",
			"primitives":[
				{
					"attributes":{
						"POSITION":4,
						"NORMAL":5,
						"TEXCOORD_0":6,
						"TEXCOORD_1":7
					},
					"indices":8,
					"material":1
				}
			]
		}
	],
	"textures":[
		{
			"sampler":0,
			"source":0
		}
	],
	"images":[
		{
			"mimeType":"image/png",
			"name":"Image",
			"uri":"Image.png"
		}
	],
	"accessors":[
		{
			"bufferView":0,
			"componentType":5126,
			"count":94,
			"max":[
				27.16020393371582,
				1.8781054019927979,
				27.160207748413086
			],
			"min":[
				-27.161746978759766,
				-0.5115938782691956,
				-27.160207748413086
			],
			"type":"VEC3"
		},
		{
			"bufferView":1,
			"componentType":5126,
			"count":94,
			"type":"VEC3"
		},
		{
			"bufferView":2,
			"componentType":5126,
			"count":94,
			"type":"VEC2"
		},
		{
			"bufferView":3,
			"componentType":5123,
			"count":432,
			"type":"SCALAR"
		},
		{
			"bufferView":4,
			"componentType":5126,
			"count":47892,
			"max":[
				27.392446517944336,
				9.972536087036133,
				23.43572235107422
			],
			"min":[
				-24.004972457885742,
				0.016935179010033607,
				-22.981050491333008
			],
			"type":"VEC3"
		},
		{
			"bufferView":5,
			"componentType":5126,
			"count":47892,
			"type":"VEC3"
		},
		{
			"bufferView":6,
			"componentType":5126,
			"count":47892,
			"type":"VEC2"
		},
		{
			"bufferView":7,
			"componentType":5126,
			"count":47892,
			"type":"VEC2"
		},
		{
			"bufferView":8,
			"componentType":5123,
			"count":133200,
			"type":"SCALAR"
		}
	],
	"bufferViews":[
		{
			"buffer":0,
			"byteLength":1128,
			"byteOffset":0,
			"target":34962
		},
		{
			"buffer":0,
			"byteLength":1128,
			"byteOffset":1128,
			"target":34962
		},
		{
			"buffer":0,
			"byteLength":752,
			"byteOffset":2256,
			"target":34962
		},
		{
			"buffer":0,
			"byteLength":864,
			"byteOffset":3008,
			"target":34963
		},
		{
			"buffer":0,
			"byteLength":574704,
			"byteOffset":3872,
			"target":34962
		},
		{
			"buffer":0,
			"byteLength":574704,
			"byteOffset":578576,
			"target":34962
		},
		{
			"buffer":0,
			"byteLength":383136,
			"byteOffset":1153280,
			"target":34962
		},
		{
			"buffer":0,
			"byteLength":383136,
			"byteOffset":1536416,
			"target":34962
		},
		{
			"buffer":0,
			"byteLength":266400,
			"byteOffset":1919552,
			"target":34963
		}
	],
	"samplers":[
		{
			"magFilter":9729,
			"minFilter":9987
		}
	],
	"buffers":[
		{
			"byteLength":2185952,
			"uri":"Tree.bin"
		}
	]
}
