# Blender 4.4.0
# www.blender.org
mtllib DefaultCone.mtl
o Cone
v 0.000000 -1.000000 -1.000000
v 0.098017 -1.000000 -0.995185
v 0.195090 -1.000000 -0.980785
v 0.290285 -1.000000 -0.956940
v 0.382683 -1.000000 -0.923880
v 0.471397 -1.000000 -0.881921
v 0.555570 -1.000000 -0.831470
v 0.634393 -1.000000 -0.773010
v 0.707107 -1.000000 -0.707107
v 0.773010 -1.000000 -0.634393
v 0.831470 -1.000000 -0.555570
v 0.881921 -1.000000 -0.471397
v 0.923880 -1.000000 -0.382683
v 0.956940 -1.000000 -0.290285
v 0.980785 -1.000000 -0.195090
v 0.995185 -1.000000 -0.098017
v 1.000000 -1.000000 0.000000
v 0.995185 -1.000000 0.098017
v 0.980785 -1.000000 0.195090
v 0.956940 -1.000000 0.290285
v 0.923880 -1.000000 0.382683
v 0.881921 -1.000000 0.471397
v 0.831470 -1.000000 0.555570
v 0.773010 -1.000000 0.634393
v 0.707107 -1.000000 0.707107
v 0.634393 -1.000000 0.773010
v 0.555570 -1.000000 0.831470
v 0.471397 -1.000000 0.881921
v 0.382683 -1.000000 0.923880
v 0.290285 -1.000000 0.956940
v 0.195090 -1.000000 0.980785
v 0.098017 -1.000000 0.995185
v 0.000000 -1.000000 1.000000
v -0.098017 -1.000000 0.995185
v -0.195090 -1.000000 0.980785
v -0.290285 -1.000000 0.956940
v -0.382683 -1.000000 0.923880
v -0.471397 -1.000000 0.881921
v -0.555570 -1.000000 0.831470
v -0.634393 -1.000000 0.773010
v -0.707107 -1.000000 0.707107
v -0.773010 -1.000000 0.634393
v -0.831470 -1.000000 0.555570
v -0.881921 -1.000000 0.471397
v -0.923880 -1.000000 0.382683
v -0.956940 -1.000000 0.290285
v -0.980785 -1.000000 0.195090
v -0.995185 -1.000000 0.098017
v -1.000000 -1.000000 0.000000
v -0.995185 -1.000000 -0.098017
v -0.980785 -1.000000 -0.195090
v -0.956940 -1.000000 -0.290285
v -0.923880 -1.000000 -0.382683
v -0.881921 -1.000000 -0.471397
v -0.831470 -1.000000 -0.555570
v -0.773010 -1.000000 -0.634393
v -0.707107 -1.000000 -0.707107
v -0.634393 -1.000000 -0.773010
v -0.555570 -1.000000 -0.831470
v -0.471397 -1.000000 -0.881921
v -0.382683 -1.000000 -0.923880
v -0.290285 -1.000000 -0.956940
v -0.195090 -1.000000 -0.980785
v -0.098017 -1.000000 -0.995185
v 0.000000 1.000000 0.000000
vn -0.0000 -0.5142 -0.8577
vn 0.0841 -0.5142 -0.8536
vn 0.1673 -0.5142 -0.8412
vn 0.2490 -0.5142 -0.8208
vn 0.3282 -0.5142 -0.7924
vn 0.4043 -0.5142 -0.7564
vn 0.4765 -0.5142 -0.7131
vn 0.5441 -0.5142 -0.6630
vn 0.6065 -0.5142 -0.6065
vn 0.6630 -0.5142 -0.5441
vn 0.7131 -0.5142 -0.4765
vn 0.7564 -0.5142 -0.4043
vn 0.7924 -0.5142 -0.3282
vn 0.8208 -0.5142 -0.2490
vn 0.8412 -0.5142 -0.1673
vn 0.8536 -0.5142 -0.0841
vn 0.8577 -0.5142 -0.0000
vn 0.8536 -0.5142 0.0841
vn 0.8412 -0.5142 0.1673
vn 0.8208 -0.5142 0.2490
vn 0.7924 -0.5142 0.3282
vn 0.7564 -0.5142 0.4043
vn 0.7131 -0.5142 0.4765
vn 0.6630 -0.5142 0.5441
vn 0.6065 -0.5142 0.6065
vn 0.5441 -0.5142 0.6630
vn 0.4765 -0.5142 0.7131
vn 0.4043 -0.5142 0.7564
vn 0.3282 -0.5142 0.7924
vn 0.2490 -0.5142 0.8208
vn 0.1673 -0.5142 0.8412
vn 0.0841 -0.5142 0.8536
vn -0.0000 -0.5142 0.8577
vn -0.0841 -0.5142 0.8536
vn -0.1673 -0.5142 0.8412
vn -0.2490 -0.5142 0.8208
vn -0.3282 -0.5142 0.7924
vn -0.4043 -0.5142 0.7564
vn -0.4765 -0.5142 0.7131
vn -0.5441 -0.5142 0.6630
vn -0.6065 -0.5142 0.6065
vn -0.6630 -0.5142 0.5441
vn -0.7131 -0.5142 0.4765
vn -0.7564 -0.5142 0.4043
vn -0.7924 -0.5142 0.3282
vn -0.8208 -0.5142 0.2490
vn -0.8412 -0.5142 0.1673
vn -0.8536 -0.5142 0.0841
vn -0.8577 -0.5142 -0.0000
vn -0.8536 -0.5142 -0.0841
vn -0.8412 -0.5142 -0.1673
vn -0.8208 -0.5142 -0.2490
vn -0.7924 -0.5142 -0.3282
vn -0.7564 -0.5142 -0.4043
vn -0.7131 -0.5142 -0.4765
vn -0.6630 -0.5142 -0.5441
vn -0.6065 -0.5142 -0.6065
vn -0.5441 -0.5142 -0.6630
vn -0.4765 -0.5142 -0.7131
vn -0.4043 -0.5142 -0.7564
vn -0.3282 -0.5142 -0.7924
vn -0.2490 -0.5142 -0.8208
vn -0.1673 -0.5142 -0.8412
vn -0.0841 -0.5142 -0.8536
vn -0.0000 1.0000 -0.0000
vt 0.250000 0.490000
vt 0.250000 0.250000
vt 0.273524 0.488844
vt 0.296822 0.485388
vt 0.319668 0.479666
vt 0.341844 0.471731
vt 0.363135 0.461661
vt 0.383337 0.449553
vt 0.402254 0.435522
vt 0.419706 0.419706
vt 0.435522 0.402254
vt 0.449553 0.383337
vt 0.461661 0.363135
vt 0.471731 0.341844
vt 0.479666 0.319668
vt 0.485388 0.296822
vt 0.488844 0.273524
vt 0.490000 0.250000
vt 0.488844 0.226476
vt 0.485388 0.203178
vt 0.479666 0.180332
vt 0.471731 0.158156
vt 0.461661 0.136865
vt 0.449553 0.116663
vt 0.435522 0.097746
vt 0.419706 0.080294
vt 0.402254 0.064478
vt 0.383337 0.050447
vt 0.363135 0.038339
vt 0.341844 0.028269
vt 0.319668 0.020334
vt 0.296822 0.014612
vt 0.273524 0.011156
vt 0.250000 0.010000
vt 0.226476 0.011156
vt 0.203178 0.014612
vt 0.180332 0.020334
vt 0.158156 0.028269
vt 0.136865 0.038339
vt 0.116663 0.050447
vt 0.097746 0.064478
vt 0.080294 0.080294
vt 0.064478 0.097746
vt 0.050447 0.116663
vt 0.038339 0.136865
vt 0.028269 0.158156
vt 0.020334 0.180332
vt 0.014612 0.203178
vt 0.011156 0.226476
vt 0.010000 0.250000
vt 0.011156 0.273524
vt 0.014612 0.296822
vt 0.020334 0.319668
vt 0.028269 0.341844
vt 0.038339 0.363135
vt 0.050447 0.383337
vt 0.064478 0.402254
vt 0.080294 0.419706
vt 0.097746 0.435522
vt 0.116663 0.449553
vt 0.136865 0.461661
vt 0.158156 0.471731
vt 0.180332 0.479666
vt 0.203178 0.485388
vt 0.750000 0.490000
vt 0.773524 0.488844
vt 0.796822 0.485388
vt 0.819668 0.479666
vt 0.841844 0.471731
vt 0.863135 0.461661
vt 0.883337 0.449553
vt 0.902254 0.435522
vt 0.919706 0.419706
vt 0.935522 0.402254
vt 0.949553 0.383337
vt 0.961661 0.363135
vt 0.971731 0.341844
vt 0.979666 0.319668
vt 0.985388 0.296822
vt 0.988844 0.273524
vt 0.990000 0.250000
vt 0.988844 0.226476
vt 0.985388 0.203178
vt 0.979666 0.180332
vt 0.971731 0.158156
vt 0.961661 0.136865
vt 0.949553 0.116663
vt 0.935522 0.097746
vt 0.919706 0.080294
vt 0.902254 0.064478
vt 0.883337 0.050447
vt 0.863135 0.038339
vt 0.841844 0.028269
vt 0.819668 0.020334
vt 0.796822 0.014612
vt 0.773524 0.011156
vt 0.750000 0.010000
vt 0.726476 0.011156
vt 0.703178 0.014612
vt 0.680332 0.020334
vt 0.658156 0.028269
vt 0.636865 0.038339
vt 0.616663 0.050447
vt 0.597746 0.064478
vt 0.580294 0.080294
vt 0.564478 0.097746
vt 0.550447 0.116663
vt 0.538339 0.136865
vt 0.528269 0.158156
vt 0.520334 0.180332
vt 0.514612 0.203178
vt 0.511156 0.226476
vt 0.510000 0.250000
vt 0.511156 0.273524
vt 0.514612 0.296822
vt 0.520334 0.319668
vt 0.528269 0.341844
vt 0.538339 0.363135
vt 0.550447 0.383337
vt 0.564478 0.402254
vt 0.580294 0.419706
vt 0.597746 0.435522
vt 0.616663 0.449553
vt 0.636865 0.461661
vt 0.658156 0.471731
vt 0.680332 0.479666
vt 0.703178 0.485388
vt 0.726476 0.488844
vt 0.226476 0.488844
s 1
f 1/1/1 65/2/65 2/3/2
f 2/3/2 65/2/65 3/4/3
f 3/4/3 65/2/65 4/5/4
f 4/5/4 65/2/65 5/6/5
f 5/6/5 65/2/65 6/7/6
f 6/7/6 65/2/65 7/8/7
f 7/8/7 65/2/65 8/9/8
f 8/9/8 65/2/65 9/10/9
f 9/10/9 65/2/65 10/11/10
f 10/11/10 65/2/65 11/12/11
f 11/12/11 65/2/65 12/13/12
f 12/13/12 65/2/65 13/14/13
f 13/14/13 65/2/65 14/15/14
f 14/15/14 65/2/65 15/16/15
f 15/16/15 65/2/65 16/17/16
f 16/17/16 65/2/65 17/18/17
f 17/18/17 65/2/65 18/19/18
f 18/19/18 65/2/65 19/20/19
f 19/20/19 65/2/65 20/21/20
f 20/21/20 65/2/65 21/22/21
f 21/22/21 65/2/65 22/23/22
f 22/23/22 65/2/65 23/24/23
f 23/24/23 65/2/65 24/25/24
f 24/25/24 65/2/65 25/26/25
f 25/26/25 65/2/65 26/27/26
f 26/27/26 65/2/65 27/28/27
f 27/28/27 65/2/65 28/29/28
f 28/29/28 65/2/65 29/30/29
f 29/30/29 65/2/65 30/31/30
f 30/31/30 65/2/65 31/32/31
f 31/32/31 65/2/65 32/33/32
f 32/33/32 65/2/65 33/34/33
f 33/34/33 65/2/65 34/35/34
f 34/35/34 65/2/65 35/36/35
f 35/36/35 65/2/65 36/37/36
f 36/37/36 65/2/65 37/38/37
f 37/38/37 65/2/65 38/39/38
f 38/39/38 65/2/65 39/40/39
f 39/40/39 65/2/65 40/41/40
f 40/41/40 65/2/65 41/42/41
f 41/42/41 65/2/65 42/43/42
f 42/43/42 65/2/65 43/44/43
f 43/44/43 65/2/65 44/45/44
f 44/45/44 65/2/65 45/46/45
f 45/46/45 65/2/65 46/47/46
f 46/47/46 65/2/65 47/48/47
f 47/48/47 65/2/65 48/49/48
f 48/49/48 65/2/65 49/50/49
f 49/50/49 65/2/65 50/51/50
f 50/51/50 65/2/65 51/52/51
f 51/52/51 65/2/65 52/53/52
f 52/53/52 65/2/65 53/54/53
f 53/54/53 65/2/65 54/55/54
f 54/55/54 65/2/65 55/56/55
f 55/56/55 65/2/65 56/57/56
f 56/57/56 65/2/65 57/58/57
f 57/58/57 65/2/65 58/59/58
f 58/59/58 65/2/65 59/60/59
f 59/60/59 65/2/65 60/61/60
f 60/61/60 65/2/65 61/62/61
f 61/62/61 65/2/65 62/63/62
f 62/63/62 65/2/65 63/64/63
f 1/65/1 2/66/2 3/67/3 4/68/4 5/69/5 6/70/6 7/71/7 8/72/8 9/73/9 10/74/10 11/75/11 12/76/12 13/77/13 14/78/14 15/79/15 16/80/16 17/81/17 18/82/18 19/83/19 20/84/20 21/85/21 22/86/22 23/87/23 24/88/24 25/89/25 26/90/26 27/91/27 28/92/28 29/93/29 30/94/30 31/95/31 32/96/32 33/97/33 34/98/34 35/99/35 36/100/36 37/101/37 38/102/38 39/103/39 40/104/40 41/105/41 42/106/42 43/107/43 44/108/44 45/109/45 46/110/46 47/111/47 48/112/48 49/113/49 50/114/50 51/115/51 52/116/52 53/117/53 54/118/54 55/119/55 56/120/56 57/121/57 58/122/58 59/123/59 60/124/60 61/125/61 62/126/62 63/127/63 64/128/64
f 63/64/63 65/2/65 64/129/64
f 64/129/64 65/2/65 1/1/1
