# Blender 4.4.1
# www.blender.org
mtllib SimpleCapsule.mtl
o Roundcube
v 0.577350 -1.577350 -0.577350
v 0.288675 -1.677003 -0.677003
v 0.000000 -1.707107 -0.707107
v -0.288675 -1.677003 -0.677003
v 0.677003 -1.288675 -0.677003
v 0.338502 -1.338502 -0.877971
v 0.000000 -1.353553 -0.935414
v -0.338502 -1.338502 -0.877971
v 0.707107 -1.000000 -0.707107
v 0.353553 -1.000000 -0.935414
v 0.000000 -1.000000 -1.000000
v -0.353553 -1.000000 -0.935414
v 0.699702 1.144338 -0.699702
v 0.349851 1.169251 -0.921389
v 0.000000 1.176777 -0.984251
v -0.349851 1.169251 -0.921389
v 0.637377 1.433013 -0.637377
v 0.318689 1.507752 -0.800391
v 0.000000 1.530330 -0.847791
v -0.318689 1.507752 -0.800391
v -0.577350 -1.577350 -0.577350
v -0.677003 -1.677003 -0.288675
v -0.707107 -1.707107 0.000000
v -0.677003 -1.677003 0.288675
v -0.677003 -1.288675 -0.677003
v -0.877971 -1.338502 -0.338502
v -0.935414 -1.353553 0.000000
v -0.877971 -1.338502 0.338502
v -0.707107 -1.000000 -0.707107
v -0.935414 -1.000000 -0.353553
v -1.000000 -1.000000 0.000000
v -0.935414 -1.000000 0.353553
v -0.699702 1.144338 -0.699702
v -0.921389 1.169251 -0.349851
v -0.984251 1.176777 -0.000000
v -0.921389 1.169251 0.349851
v -0.637377 1.433013 -0.637377
v -0.800391 1.507752 -0.318689
v -0.847791 1.530330 -0.000000
v -0.800391 1.507752 0.318689
v -0.577350 -1.577350 0.577350
v -0.288675 -1.677003 0.677003
v 0.000000 -1.707107 0.707107
v 0.288675 -1.677003 0.677003
v -0.677003 -1.288675 0.677003
v -0.338502 -1.338502 0.877971
v 0.000000 -1.353553 0.935414
v 0.338502 -1.338502 0.877971
v -0.707107 -1.000000 0.707107
v -0.353553 -1.000000 0.935414
v 0.000000 -1.000000 1.000000
v 0.353553 -1.000000 0.935414
v -0.699702 1.144338 0.699702
v -0.349851 1.169251 0.921389
v 0.000000 1.176777 0.984251
v 0.349851 1.169251 0.921389
v -0.637377 1.433013 0.637377
v -0.318689 1.507752 0.800391
v 0.000000 1.530330 0.847791
v 0.318689 1.507752 0.800391
v 0.577350 -1.577350 0.577350
v 0.677003 -1.677003 0.288675
v 0.707107 -1.707107 0.000000
v 0.677003 -1.677003 -0.288675
v 0.677003 -1.288675 0.677003
v 0.877971 -1.338502 0.338502
v 0.935414 -1.353553 0.000000
v 0.877971 -1.338502 -0.338502
v 0.707107 -1.000000 0.707107
v 0.935414 -1.000000 0.353553
v 1.000000 -1.000000 0.000000
v 0.935414 -1.000000 -0.353553
v 0.699702 1.144338 0.699702
v 0.921389 1.169251 0.349851
v 0.984251 1.176777 -0.000000
v 0.921389 1.169251 -0.349851
v 0.637377 1.433013 0.637377
v 0.800391 1.507752 0.318689
v 0.847791 1.530330 -0.000000
v 0.800391 1.507752 -0.318689
v 0.338502 -1.877971 0.338502
v 0.000000 -1.935414 0.353553
v -0.338502 -1.877971 0.338502
v 0.353553 -1.935414 0.000000
v 0.000000 -2.000000 0.000000
v -0.353553 -1.935414 0.000000
v 0.338502 -1.877971 -0.338502
v 0.000000 -1.935414 -0.353553
v -0.338502 -1.877971 -0.338502
v 0.318689 1.800390 -0.507752
v 0.000000 1.847791 -0.530330
v -0.318689 1.800390 -0.507752
v 0.507752 1.800390 -0.318689
v -0.507752 1.800390 -0.318689
v 0.349851 1.921389 -0.169251
v 0.000000 1.984251 -0.176777
v -0.349851 1.921389 -0.169251
v 0.530330 1.847791 -0.000000
v 0.176777 1.984251 -0.000000
v -0.176777 1.984251 -0.000000
v -0.530330 1.847791 -0.000000
v 0.000000 1.984251 0.176777
v 0.507752 1.800390 0.318689
v 0.169251 1.921389 0.349851
v -0.169251 1.921389 0.349851
v -0.507752 1.800390 0.318689
v 0.318689 1.800390 0.507752
v 0.000000 1.847791 0.530330
v -0.318689 1.800390 0.507752
vn 0.3403 -0.3403 -0.8766
vn 0.6737 -0.3036 -0.6737
vn 0.5774 -0.5774 -0.5774
vn 0.3036 -0.6737 -0.6737
vn -0.0000 -0.3610 -0.9326
vn -0.0000 -0.7071 -0.7071
vn -0.3403 -0.3403 -0.8766
vn -0.3036 -0.6737 -0.6737
vn -0.5774 -0.5774 0.5774
vn -0.6737 -0.6737 0.3036
vn -0.3403 -0.8766 0.3403
vn -0.3036 -0.6737 0.6737
vn -0.6737 -0.3036 -0.6737
vn -0.5774 -0.5774 -0.5774
vn 0.3573 0.1723 -0.9180
vn -0.0000 0.1829 -0.9831
vn -0.0000 0.5411 -0.8410
vn 0.3237 0.5134 -0.7948
vn 0.3621 -0.0802 -0.9287
vn -0.0000 -0.0847 -0.9964
vn 0.9287 -0.0802 -0.3621
vn 0.7051 -0.0758 -0.7051
vn 0.6986 0.1544 -0.6986
vn 0.9180 0.1723 -0.3573
vn 0.6287 0.4520 -0.6328
vn -0.6986 0.1544 -0.6986
vn -0.7051 -0.0758 -0.7051
vn -0.9287 -0.0802 -0.3621
vn -0.9180 0.1723 -0.3573
vn -0.0000 0.8410 -0.5411
vn 0.3237 0.7859 -0.5268
vn 0.8410 0.5411 -0.0000
vn 0.7878 0.5184 -0.3325
vn 0.5557 0.7639 -0.3281
vn 0.5602 0.8280 0.0231
vn -0.7071 -0.7071 -0.0000
vn -0.6737 -0.6737 -0.3036
vn -0.3403 -0.8766 -0.3403
vn -0.3610 -0.9326 -0.0000
vn -0.3573 0.1723 -0.9180
vn -0.6287 0.4520 -0.6328
vn -0.3237 0.5134 -0.7948
vn -0.8766 -0.3403 -0.3403
vn -0.9326 -0.3610 -0.0000
vn -0.8766 -0.3403 0.3403
vn -0.9287 -0.0802 0.3621
vn -0.9964 -0.0847 -0.0000
vn -0.3237 0.7859 -0.5268
vn -0.5557 0.7639 -0.3281
vn -0.3251 0.9267 -0.1887
vn -0.9180 0.1723 0.3573
vn -0.7051 -0.0758 0.7051
vn -0.6986 0.1544 0.6986
vn -0.2010 0.9794 0.0213
vn -0.5602 0.8280 0.0231
vn -0.5268 0.7859 0.3237
vn -0.1944 0.9256 0.3247
vn -0.3403 -0.3403 0.8766
vn -0.0000 -0.3610 0.9326
vn -0.0000 -0.0847 0.9964
vn -0.3621 -0.0802 0.9287
vn 0.5774 -0.5774 0.5774
vn 0.3036 -0.6737 0.6737
vn 0.3403 -0.8766 0.3403
vn 0.6737 -0.6737 0.3036
vn -0.6737 -0.3036 0.6737
vn -0.7878 0.5184 -0.3325
vn -0.3573 0.1723 0.9180
vn -0.9831 0.1829 -0.0000
vn -0.8410 0.5411 -0.0000
vn -0.7948 0.5134 0.3237
vn -0.0000 -0.7071 0.7071
vn -0.0000 -0.9326 0.3610
vn -0.6328 0.4520 0.6287
vn 0.3403 -0.3403 0.8766
vn 0.3621 -0.0802 0.9287
vn 0.3251 0.9267 -0.1887
vn 0.2010 0.9794 0.0213
vn -0.0000 0.9749 -0.2228
vn 0.1944 0.9256 0.3247
vn 0.5268 0.7859 0.3237
vn -0.0000 0.9838 0.1794
vn 0.3573 0.1723 0.9180
vn 0.7051 -0.0758 0.7051
vn 0.6986 0.1544 0.6986
vn 0.8766 -0.3403 0.3403
vn 0.9326 -0.3610 -0.0000
vn 0.9964 -0.0847 -0.0000
vn 0.9287 -0.0802 0.3621
vn -0.0000 -1.0000 -0.0000
vn -0.0000 -0.9326 -0.3610
vn 0.3610 -0.9326 -0.0000
vn 0.3403 -0.8766 -0.3403
vn 0.6737 -0.3036 0.6737
vn -0.3325 0.5184 0.7878
vn 0.9180 0.1723 0.3573
vn -0.0000 0.1829 0.9831
vn -0.0000 0.5411 0.8410
vn -0.0000 0.8153 0.5791
vn -0.3281 0.7639 0.5557
vn 0.3325 0.5184 0.7878
vn 0.7071 -0.7071 -0.0000
vn 0.6328 0.4520 0.6287
vn 0.3281 0.7639 0.5557
vn 0.8766 -0.3403 -0.3403
vn 0.6737 -0.6737 -0.3036
vn -0.3621 -0.0802 -0.9287
vn 0.9831 0.1829 -0.0000
vn 0.7948 0.5134 0.3237
vt 0.702061 0.152280
vt 0.641617 0.168521
vt 0.641050 0.116827
vt 0.684022 0.090967
vt 0.744716 0.132567
vt 0.718150 0.070688
vt 0.174447 0.509471
vt 0.160229 0.564203
vt 0.179043 0.709657
vt 0.149733 0.752529
vt 0.106556 0.705721
vt 0.154547 0.663864
vt 0.111472 0.501414
vt 0.113832 0.548090
vt 0.695596 0.501127
vt 0.227776 0.102778
vt 0.663711 0.733704
vt 0.688945 0.690416
vt 0.706109 0.203176
vt 0.229380 0.454739
vt 0.573515 0.205672
vt 0.640936 0.211906
vt 0.745742 0.632177
vt 0.565355 0.503579
vt 0.631731 0.506576
vt 0.734978 0.698203
vt 0.707439 0.634257
vt 0.110935 0.108023
vt 0.110759 0.454739
vt 0.046075 0.454739
vt 0.047459 0.103995
vt 0.602718 0.700667
vt 0.632721 0.659962
vt 0.653200 0.540131
vt 0.682973 0.580431
vt 0.630377 0.616794
vt 0.596143 0.579578
vt 0.120751 0.787456
vt 0.092053 0.815504
vt 0.038920 0.779565
vt 0.068758 0.744150
vt 0.177445 0.103995
vt 0.112410 0.061347
vt 0.169031 0.049263
vt 0.051754 0.509471
vt 0.173335 0.816452
vt 0.203514 0.772755
vt 0.813136 0.027630
vt 0.001947 0.454739
vt 0.213874 0.045612
vt 0.576947 0.735971
vt 0.541514 0.737895
vt 0.529243 0.703371
vt 0.823331 0.327699
vt 0.880557 0.021396
vt 0.889496 0.317836
vt 0.521682 0.664585
vt 0.824249 0.465571
vt 0.865589 0.442081
vt 0.905462 0.477910
vt 0.210203 0.649580
vt 0.281035 0.074195
vt 0.274455 0.131361
vt 0.945730 0.030127
vt 0.010056 0.511905
vt 0.390004 0.038010
vt 0.104026 0.595014
vt 0.047314 0.624987
vt 0.431925 0.021897
vt 0.224341 0.712117
vt 0.059476 0.049263
vt 0.953572 0.330152
vt 0.762900 0.043995
vt 0.773763 0.344995
vt 0.789583 0.402170
vt 0.096219 0.001947
vt 0.833633 0.383637
vt 0.129518 0.626004
vt 0.073141 0.663425
vt 0.889599 0.365070
vt 0.755292 0.420345
vt 0.329388 0.076629
vt 0.325426 0.131361
vt 0.590471 0.619930
vt 0.552620 0.622423
vt 0.554812 0.662786
vt 0.787247 0.478788
vt 0.522807 0.584846
vt 0.566700 0.547272
vt 0.519490 0.624222
vt 0.861937 0.506257
vt 0.326390 0.482105
vt 0.393076 0.131361
vt 0.392901 0.478077
vt 0.343606 0.021897
vt 0.452082 0.076629
vt 0.531555 0.136580
vt 0.501889 0.131361
vt 0.457761 0.131361
vt 0.031863 0.701665
vt 0.675660 0.018859
vt 0.006881 0.659827
vt 0.638036 0.046856
vt 0.184933 0.602872
vt 0.392363 0.084685
vt 0.943403 0.385704
vt 0.456377 0.482105
vt 0.998053 0.349218
vt 0.276060 0.483322
vt 0.982777 0.405807
vt 0.945100 0.467846
vt 0.908672 0.442892
vt 0.334804 0.536837
vt 0.557016 0.073722
vt 0.595093 0.020376
vt 0.391425 0.524752
vt 0.364618 0.584153
vt 0.289962 0.540487
vt 0.531268 0.549196
vt 0.579127 0.154595
vt 0.595530 0.092633
vt 0.940994 0.498858
vt 0.222800 0.511905
vt 0.178409 0.454739
vt 0.499911 0.483322
vt 0.523280 0.189307
vt 0.727892 0.567706
vt 0.524566 0.059383
vt 0.444360 0.536837
vt 0.515723 0.488358
vt 0.822701 0.496630
vt 0.697747 0.522087
vt 0.003924 0.102778
vt 0.071910 0.564203
vt 0.902221 0.507016
vt 0.619296 0.510909
vt 0.002498 0.740552
s 1
f 6/1/1 5/2/2 1/3/3 2/4/4
f 7/5/5 6/1/1 2/4/4 3/6/6
f 8/7/7 7/5/5 3/6/6 4/8/8
f 41/9/9 24/10/10 83/11/11 42/12/12
f 25/13/13 8/7/7 4/8/8 21/14/14
f 14/15/15 15/16/16 19/17/17 18/18/18
f 14/15/15 10/19/19 11/20/20 15/16/16
f 72/21/21 9/22/22 13/23/23 76/24/24
f 13/25/23 14/26/15 18/18/18 17/27/25
f 33/28/26 29/29/27 30/30/28 34/31/29
f 18/18/18 19/17/17 91/32/30 90/33/31
f 79/34/32 80/35/33 93/36/34 98/37/35
f 13/25/23 9/22/22 10/19/19 14/26/15
f 23/38/36 22/39/37 89/40/38 86/41/39
f 16/42/40 33/28/26 37/43/41 20/44/42
f 80/35/33 76/24/24 13/23/23 17/27/25
f 25/13/13 26/45/43 30/30/28 29/29/27
f 27/46/44 28/47/45 32/48/46 31/49/47
f 19/50/17 20/44/42 92/51/48 91/32/30
f 94/52/49 97/53/50 92/51/48
f 20/44/42 37/43/41 92/51/48
f 36/54/51 32/48/46 49/55/52 53/56/53
f 100/57/54 101/58/55 106/59/56 105/60/57
f 24/10/10 23/38/36 86/41/39 83/11/11
f 46/61/58 47/62/59 51/63/60 50/64/61
f 26/45/43 25/13/13 21/14/14 22/39/37
f 27/65/44 26/45/43 22/39/37 23/38/36
f 28/47/45 27/46/44 23/38/36 24/10/10
f 61/66/62 44/67/63 81/68/64 62/69/65
f 45/70/66 28/47/45 24/10/10 41/9/9
f 33/28/26 34/31/29 38/71/67 37/43/41
f 53/56/53 49/55/52 50/64/61 54/72/68
f 34/31/29 30/30/28 31/73/47 35/74/69
f 34/31/29 35/74/69 39/75/70 38/71/67
f 38/71/67 39/75/70 101/58/55 94/76/49
f 35/74/69 36/54/51 40/77/71 39/75/70
f 43/78/72 42/12/12 83/11/11 82/79/73
f 36/54/51 53/56/53 57/80/74 40/77/71
f 37/43/41 38/81/67 94/52/49 92/51/48
f 39/75/70 40/77/71 106/59/56 101/58/55
f 45/70/66 46/61/58 50/64/61 49/55/52
f 47/62/59 48/82/75 52/83/76 51/63/60
f 98/37/35 95/84/77 99/85/78
f 99/85/78 95/84/77 96/86/79
f 101/58/55 97/53/50 94/87/49
f 98/37/35 99/85/78 104/88/80 103/89/81
f 105/60/57 102/90/82 100/91/54
f 56/92/83 52/83/76 69/93/84 73/94/85
f 5/2/2 6/1/1 10/19/19 9/22/22
f 44/95/63 43/78/72 82/79/73 81/68/64
f 66/96/86 67/97/87 71/98/88 70/99/89
f 85/100/90 86/41/39 89/40/38 88/101/91
f 46/61/58 45/70/66 41/9/9 42/12/12
f 84/102/92 85/100/90 88/101/91 87/103/93
f 47/62/59 46/61/58 42/12/12 43/78/72
f 48/82/75 47/104/59 43/78/72 44/95/63
f 65/105/94 48/82/75 44/95/63 61/66/62
f 53/56/53 54/72/68 58/106/95 57/80/74
f 73/94/85 69/93/84 70/99/89 74/107/96
f 54/72/68 50/64/61 51/63/60 55/108/97
f 54/72/68 55/109/97 59/110/98 58/106/95
f 58/106/95 59/110/98 108/111/99 109/112/100
f 55/109/97 56/92/83 60/113/101 59/110/98
f 63/114/102 62/69/65 81/68/64 84/115/92
f 56/92/83 73/94/85 77/116/103 60/113/101
f 57/80/74 58/106/95 109/112/100 106/59/56
f 60/113/101 77/116/103 103/89/81 107/117/104
f 59/118/98 60/113/101 107/119/104 108/111/99
f 65/105/94 66/96/86 70/99/89 69/93/84
f 67/97/87 68/120/105 72/21/21 71/98/88
f 87/103/93 2/4/4 1/3/3 64/121/106
f 107/119/104 104/122/80 108/111/99
f 7/123/5 8/7/7 12/124/107 11/20/20
f 64/121/106 63/114/102 84/115/92 87/103/93
f 75/125/108 71/126/88 72/21/21 76/127/24
f 82/79/73 83/11/11 86/41/39 85/100/90
f 66/96/86 65/105/94 61/66/62 62/128/65
f 67/97/87 66/96/86 62/128/65 63/114/102
f 68/120/105 67/97/87 63/114/102 64/121/106
f 78/129/109 79/34/32 98/37/35 103/89/81
f 73/94/85 74/107/96 78/129/109 77/116/103
f 95/84/77 93/36/34 90/33/31
f 75/130/108 76/127/24 80/35/33 79/34/32
f 81/68/64 82/79/73 85/100/90 84/115/92
f 108/111/99 105/60/57 109/112/100
f 80/35/33 17/27/25 90/33/31 93/36/34
f 100/57/54 97/131/50 101/58/55
f 15/16/16 16/42/40 20/44/42 19/17/17
f 100/57/54 96/86/79 97/53/50
f 95/84/77 98/37/35 93/36/34
f 102/90/82 104/88/80 99/85/78
f 48/82/75 65/105/94 69/93/84 52/83/76
f 55/109/97 51/63/60 52/83/76 56/92/83
f 28/47/45 45/70/66 49/55/52 32/48/46
f 74/107/96 70/99/89 71/126/88 75/125/108
f 90/33/31 91/32/30 96/86/79 95/84/77
f 74/107/96 75/132/108 79/34/32 78/129/109
f 91/32/30 92/51/48 97/53/50 96/86/79
f 35/133/69 31/73/47 32/48/46 36/54/51
f 21/14/14 4/8/8 89/40/38 22/134/37
f 72/21/21 68/120/105 5/2/2 9/22/22
f 16/42/40 12/124/107 29/29/27 33/28/26
f 17/27/25 18/18/18 90/33/31
f 109/112/100 105/60/57 106/59/56
f 107/119/104 103/89/81 104/88/80
f 102/90/82 99/85/78 96/86/79 100/57/54
f 108/111/99 104/88/80 102/135/82 105/60/57
f 3/6/6 2/4/4 87/103/93 88/101/91
f 40/77/71 57/80/74 106/59/56
f 78/136/109 103/89/81 77/116/103
f 68/120/105 64/121/106 1/3/3 5/2/2
f 6/1/1 7/123/5 11/20/20 10/19/19
f 4/8/8 3/6/6 88/137/91 89/40/38
f 26/45/43 27/46/44 31/49/47 30/30/28
f 15/16/16 11/20/20 12/124/107 16/42/40
f 8/7/7 25/13/13 29/29/27 12/124/107
