# Blender 4.4.1
# www.blender.org
mtllib SimpleSphere.mtl
o Sphere
v 0.000000 0.995185 -0.098017
v 0.000000 0.881921 -0.471397
v 0.000000 0.290285 -0.956940
v 0.000000 -0.098017 -0.995185
v 0.000000 -0.471397 -0.881921
v 0.000000 -0.956940 -0.290285
v 0.037510 0.995185 -0.090556
v 0.180396 0.881921 -0.435514
v 0.295818 0.634393 -0.714169
v 0.366205 0.290285 -0.884098
v 0.380841 -0.098017 -0.919431
v 0.337497 -0.471397 -0.814789
v 0.242772 -0.773010 -0.586103
v 0.111087 -0.956940 -0.268188
v 0.069309 0.995185 -0.069309
v 0.333328 0.881921 -0.333328
v 0.546601 0.634393 -0.546601
v 0.676659 0.290285 -0.676659
v 0.703702 -0.098017 -0.703702
v 0.623612 -0.471397 -0.623612
v 0.448584 -0.773010 -0.448584
v 0.205262 -0.956940 -0.205262
v 0.090556 0.995185 -0.037510
v 0.435514 0.881921 -0.180396
v 0.714168 0.634393 -0.295818
v 0.884098 0.290285 -0.366205
v 0.919431 -0.098017 -0.380841
v 0.814789 -0.471397 -0.337497
v 0.586103 -0.773010 -0.242772
v 0.268188 -0.956940 -0.111087
v 0.098017 0.995185 -0.000000
v 0.471397 0.881921 -0.000000
v 0.773010 0.634393 -0.000000
v 0.956940 0.290285 -0.000000
v 0.995185 -0.098017 0.000000
v 0.881921 -0.471397 0.000000
v 0.634393 -0.773010 0.000000
v 0.290285 -0.956940 0.000000
v 0.090556 0.995185 0.037510
v 0.435514 0.881921 0.180396
v 0.714169 0.634393 0.295818
v 0.884098 0.290285 0.366205
v 0.919431 -0.098017 0.380841
v 0.814789 -0.471397 0.337497
v 0.586103 -0.773010 0.242772
v 0.268188 -0.956940 0.111087
v 0.069309 0.995185 0.069309
v 0.333328 0.881921 0.333328
v 0.546601 0.634393 0.546601
v 0.676659 0.290285 0.676659
v 0.703702 -0.098017 0.703702
v 0.623612 -0.471397 0.623612
v 0.448584 -0.773010 0.448584
v 0.205262 -0.956940 0.205262
v 0.037510 0.995185 0.090556
v 0.180396 0.881921 0.435514
v 0.295818 0.634393 0.714168
v 0.366205 0.290285 0.884097
v 0.380841 -0.098017 0.919431
v 0.337497 -0.471397 0.814789
v 0.242772 -0.773010 0.586103
v 0.111087 -0.956940 0.268188
v 0.000000 0.995185 0.098017
v 0.000000 0.881921 0.471397
v 0.000000 0.634393 0.773010
v 0.000000 0.290285 0.956940
v 0.000000 -0.098017 0.995184
v 0.000000 -0.471397 0.881921
v 0.000000 -0.773010 0.634393
v 0.000000 -0.956940 0.290285
v 0.000000 1.000000 -0.000000
v -0.037510 0.995185 0.090556
v -0.180396 0.881921 0.435514
v -0.295818 0.634393 0.714168
v -0.366205 0.290285 0.884097
v -0.380841 -0.098017 0.919430
v -0.337497 -0.471397 0.814789
v -0.242772 -0.773010 0.586103
v -0.111087 -0.956940 0.268188
v 0.000000 -1.000000 0.000000
v -0.069309 0.995185 0.069309
v -0.333328 0.881921 0.333328
v -0.546601 0.634393 0.546601
v -0.676659 0.290285 0.676659
v -0.703702 -0.098017 0.703702
v -0.623612 -0.471397 0.623612
v -0.448584 -0.773010 0.448584
v -0.205262 -0.956940 0.205262
v -0.090556 0.995185 0.037509
v -0.435514 0.881921 0.180396
v -0.714168 0.634393 0.295818
v -0.884098 0.290285 0.366205
v -0.919431 -0.098017 0.380840
v -0.814789 -0.471397 0.337496
v -0.586103 -0.773010 0.242772
v -0.268188 -0.956940 0.111087
v -0.098017 0.995185 -0.000000
v -0.471396 0.881921 -0.000000
v -0.773010 0.634393 -0.000000
v -0.956940 0.290285 -0.000000
v -0.995184 -0.098017 0.000000
v -0.881921 -0.471397 0.000000
v -0.634393 -0.773010 0.000000
v -0.290285 -0.956940 0.000000
v -0.090556 0.995185 -0.037510
v -0.435514 0.881921 -0.180396
v -0.714168 0.634393 -0.295818
v -0.884098 0.290285 -0.366205
v -0.919430 -0.098017 -0.380841
v -0.814789 -0.471397 -0.337497
v -0.586103 -0.773010 -0.242772
v -0.268188 -0.956940 -0.111087
v -0.069309 0.995185 -0.069309
v -0.333328 0.881921 -0.333328
v -0.546601 0.634393 -0.546601
v -0.676659 0.290285 -0.676659
v -0.703702 -0.098017 -0.703702
v -0.623612 -0.471397 -0.623612
v -0.448584 -0.773010 -0.448584
v -0.205262 -0.956940 -0.205262
v -0.037509 0.995185 -0.090556
v -0.180396 0.881921 -0.435514
v -0.295818 0.634393 -0.714168
v -0.366205 0.290285 -0.884098
v -0.380840 -0.098017 -0.919430
v -0.337496 -0.471397 -0.814789
v -0.242772 -0.773010 -0.586103
v -0.111087 -0.956940 -0.268188
v 0.000000 0.634393 -0.773010
v 0.000000 -0.773010 -0.634393
vn 0.1313 0.9826 0.1313
vn 0.3464 0.8718 0.3464
vn 0.4526 0.8718 0.1875
vn 0.1716 0.9826 0.0711
vn -0.0000 0.8718 -0.4899
vn -0.0000 0.9826 -0.1857
vn 0.0711 0.9826 -0.1716
vn 0.1875 0.8718 -0.4526
vn -0.0000 0.2838 -0.9589
vn -0.0000 0.6227 -0.7824
vn 0.2994 0.6227 -0.7229
vn 0.3670 0.2838 -0.8859
vn 0.6273 -0.4616 -0.6273
vn 0.7039 -0.0957 -0.7039
vn 0.9196 -0.0957 -0.3809
vn 0.8196 -0.4616 -0.3395
vn 0.1313 0.9826 -0.1313
vn -0.0000 1.0000 -0.0000
vn 0.1716 0.9826 -0.0711
vn 0.1857 0.9826 -0.0000
vn 0.4899 0.8718 -0.0000
vn 0.4526 0.8718 -0.1875
vn -0.0711 0.9826 -0.1716
vn -0.1875 0.8718 -0.4526
vn 0.3809 -0.0957 -0.9196
vn -0.0000 -0.0957 -0.9954
vn 0.2482 -0.7612 -0.5991
vn 0.3395 -0.4616 -0.8196
vn 0.4586 -0.7612 -0.4586
vn 0.2352 -0.9430 -0.2352
vn 0.1273 -0.9430 -0.3074
vn -0.0000 -0.9430 -0.3327
vn -0.0000 -1.0000 -0.0000
vn -0.0000 -0.4616 -0.8871
vn 0.5533 0.6227 -0.5533
vn 0.6780 0.2838 -0.6780
vn 0.8859 0.2838 -0.3670
vn 0.9589 0.2838 -0.0000
vn 0.9954 -0.0957 -0.0000
vn -0.3809 -0.0957 -0.9196
vn -0.3395 -0.4616 -0.8196
vn 0.7229 0.6227 -0.2994
vn 0.3464 0.8718 -0.3464
vn -0.0000 -0.7612 -0.6485
vn 0.5991 -0.7612 -0.2482
vn 0.8871 -0.4616 -0.0000
vn 0.9196 -0.0957 0.3809
vn 0.8196 -0.4616 0.3395
vn 0.7824 0.6227 -0.0000
vn 0.3074 -0.9430 -0.1273
vn 0.7039 -0.0957 0.7039
vn 0.6273 -0.4616 0.6273
vn 0.8859 0.2838 0.3670
vn 0.6780 0.2838 0.6780
vn 0.6485 -0.7612 -0.0000
vn 0.3327 -0.9430 -0.0000
vn -0.0000 0.8718 0.4899
vn 0.1875 0.8718 0.4526
vn 0.0711 0.9826 0.1716
vn -0.0000 0.9826 0.1857
vn 0.7229 0.6227 0.2994
vn 0.5991 -0.7612 0.2482
vn 0.3809 -0.0957 0.9196
vn 0.3395 -0.4616 0.8196
vn 0.5533 0.6227 0.5533
vn 0.3074 -0.9430 0.1273
vn 0.3670 0.2838 0.8859
vn -0.0000 0.2838 0.9589
vn -0.0000 -0.0957 0.9954
vn -0.0000 -0.4616 0.8871
vn 0.4586 -0.7612 0.4586
vn -0.4899 0.8718 -0.0000
vn -0.4526 0.8718 0.1875
vn -0.1716 0.9826 0.0711
vn -0.1857 0.9826 -0.0000
vn 0.2352 -0.9430 0.2352
vn -0.1313 0.9826 0.1313
vn -0.3464 0.8718 0.3464
vn -0.1875 0.8718 0.4526
vn -0.0711 0.9826 0.1716
vn 0.2994 0.6227 0.7229
vn -0.7039 -0.0957 0.7039
vn -0.6273 -0.4616 0.6273
vn -0.3395 -0.4616 0.8196
vn -0.3809 -0.0957 0.9196
vn 0.2482 -0.7612 0.5991
vn -0.0000 0.6227 0.7824
vn 0.1273 -0.9430 0.3074
vn -0.3670 0.2838 0.8859
vn -0.6780 0.2838 0.6780
vn -0.0000 -0.7612 0.6485
vn -0.0000 -0.9430 0.3327
vn -0.2994 0.6227 0.7229
vn -0.7229 0.6227 0.2994
vn -0.5533 0.6227 0.5533
vn -0.2482 -0.7612 0.5991
vn -0.8859 0.2838 0.3670
vn -0.9196 -0.0957 0.3809
vn -0.1273 -0.9430 0.3074
vn -0.4586 -0.7612 0.4586
vn -0.2352 -0.9430 0.2352
vn -0.3327 -0.9430 -0.0000
vn -0.3074 -0.9430 0.1273
vn -0.5991 -0.7612 0.2482
vn -0.6485 -0.7612 -0.0000
vn -0.8196 -0.4616 0.3395
vn -0.8871 -0.4616 -0.0000
vn -0.4526 0.8718 -0.1875
vn -0.1716 0.9826 -0.0711
vn -0.9954 -0.0957 -0.0000
vn -0.7824 0.6227 -0.0000
vn -0.9589 0.2838 -0.0000
vn -0.3464 0.8718 -0.3464
vn -0.1313 0.9826 -0.1313
vn -0.8859 0.2838 -0.3670
vn -0.7229 0.6227 -0.2994
vn -0.9196 -0.0957 -0.3809
vn -0.3074 -0.9430 -0.1273
vn -0.5991 -0.7612 -0.2482
vn -0.8196 -0.4616 -0.3395
vn -0.3670 0.2838 -0.8859
vn -0.6780 0.2838 -0.6780
vn -0.5533 0.6227 -0.5533
vn -0.2994 0.6227 -0.7229
vn -0.7039 -0.0957 -0.7039
vn -0.4586 -0.7612 -0.4586
vn -0.6273 -0.4616 -0.6273
vn -0.2352 -0.9430 -0.2352
vn -0.1273 -0.9430 -0.3074
vn -0.2482 -0.7612 -0.5991
vt 0.375000 0.968750
vt 0.375000 0.843750
vt 0.437500 0.843750
vt 0.437500 0.968750
vt 0.750000 0.843750
vt 0.750000 0.968750
vt 0.687500 0.968750
vt 0.687500 0.843750
vt 0.750000 0.593750
vt 0.750000 0.718750
vt 0.687500 0.718750
vt 0.687500 0.593750
vt 0.625000 0.343750
vt 0.625000 0.468750
vt 0.562500 0.468750
vt 0.562500 0.343750
vt 0.625000 0.968750
vt 0.570312 1.000000
vt 0.562500 0.968750
vt 0.500000 0.968750
vt 0.500000 0.843750
vt 0.562500 0.843750
vt 0.812500 0.968750
vt 0.812500 0.843750
vt 0.632812 1.000000
vt 0.687500 0.468750
vt 0.750000 0.468750
vt 0.687500 0.218750
vt 0.687500 0.343750
vt 0.625000 0.218750
vt 0.625000 0.093750
vt 0.687500 0.093750
vt 0.750000 0.093750
vt 0.773438 0.000000
vt 0.750000 0.343750
vt 0.445312 1.000000
vt 0.625000 0.718750
vt 0.625000 0.593750
vt 0.562500 0.593750
vt 0.500000 0.593750
vt 0.500000 0.468750
vt 0.812500 0.468750
vt 0.812500 0.343750
vt 0.562500 0.718750
vt 0.625000 0.843750
vt 0.750000 0.218750
vt 0.562500 0.218750
vt 0.507812 1.000000
vt 0.500000 0.343750
vt 0.437500 0.468750
vt 0.437500 0.343750
vt 0.710938 0.000000
vt 0.500000 0.718750
vt 0.562500 0.093750
vt 0.375000 0.468750
vt 0.375000 0.343750
vt 0.437500 0.593750
vt 0.375000 0.593750
vt 0.500000 0.218750
vt 0.500000 0.093750
vt 0.250000 0.843750
vt 0.312500 0.843750
vt 0.312500 0.968750
vt 0.250000 0.968750
vt 0.437500 0.718750
vt 0.648438 0.000000
vt 0.320312 1.000000
vt 0.382812 1.000000
vt 0.437500 0.218750
vt 0.312500 0.468750
vt 0.312500 0.343750
vt 0.375000 0.718750
vt 0.437500 0.093750
vt 0.585938 0.000000
vt 0.312500 0.593750
vt 0.250000 0.593750
vt 0.250000 0.468750
vt 0.250000 0.343750
vt 0.375000 0.218750
vt 1.000000 0.843750
vt 0.062500 0.843750
vt 0.062500 0.968750
vt 1.000000 0.968750
vt 0.375000 0.093750
vt 0.125000 0.968750
vt 0.125000 0.843750
vt 0.187500 0.843750
vt 0.187500 0.968750
vt 0.312500 0.718750
vt 0.523438 0.000000
vt 0.125000 0.468750
vt 0.125000 0.343750
vt 0.187500 0.343750
vt 0.187500 0.468750
vt 0.312500 0.218750
vt 0.257812 1.000000
vt 0.250000 0.718750
vt 0.312500 0.093750
vt 0.460938 0.000000
vt 0.187500 0.593750
vt 0.125000 0.593750
vt 0.250000 0.218750
vt 0.250000 0.093750
vt 0.398438 0.000000
vt 0.187500 0.718750
vt 0.132812 1.000000
vt 0.195312 1.000000
vt 0.062500 0.718750
vt 0.125000 0.718750
vt 0.187500 0.218750
vt 0.062500 0.593750
vt 0.062500 0.468750
vt 0.187500 0.093750
vt 0.335937 0.000000
vt 0.070312 1.000000
vt 0.125000 0.218750
vt 0.125000 0.093750
vt 0.273438 0.000000
vt 1.000000 0.093750
vt 0.062500 0.093750
vt 0.062500 0.218750
vt 1.000000 0.218750
vt 0.062500 0.343750
vt 1.000000 0.343750
vt 0.937500 0.843750
vt 0.000000 0.843750
vt 0.937500 0.968750
vt 0.210938 0.000000
vt 1.000000 0.468750
vt 1.000000 0.718750
vt 1.000000 0.593750
vt 0.875000 0.843750
vt 0.875000 0.968750
vt 0.937500 0.593750
vt 0.000000 0.593750
vt 0.000000 0.718750
vt 0.937500 0.718750
vt 0.882812 1.000000
vt 0.007812 1.000000
vt 0.148438 0.000000
vt 0.937500 0.468750
vt 0.000000 0.468750
vt 0.937500 0.093750
vt 0.000000 0.093750
vt 0.000000 0.218750
vt 0.937500 0.218750
vt 0.000000 0.343750
vt 0.937500 0.343750
vt 0.812500 0.593750
vt 0.875000 0.593750
vt 0.875000 0.718750
vt 0.812500 0.718750
vt 0.945312 1.000000
vt 0.875000 0.468750
vt 0.085937 0.000000
vt 0.875000 0.218750
vt 0.875000 0.343750
vt 0.875000 0.093750
vt 0.023438 0.000000
vt 0.812500 0.093750
vt 0.812500 0.218750
vt 0.820312 1.000000
vt 0.960938 0.000000
vt 0.695312 1.000000
vt 0.757812 1.000000
vt 0.835938 0.000000
vt 0.898438 0.000000
s 1
f 47/1/1 48/2/2 40/3/3 39/4/4
f 2/5/5 1/6/6 7/7/7 8/8/8
f 3/9/9 129/10/10 9/11/11 10/12/12
f 20/13/13 19/14/14 27/15/15 28/16/16
f 15/17/17 71/18/18 23/19/19
f 31/20/20 32/21/21 24/22/22 23/19/19
f 121/23/23 1/6/6 2/5/5 122/24/24
f 7/7/7 71/25/18 15/17/17
f 11/26/25 4/27/26 3/9/9 10/12/12
f 13/28/27 12/29/28 20/13/13 21/30/29
f 21/30/29 22/31/30 14/32/31 13/28/27
f 6/33/32 14/32/31 80/34/33
f 5/35/34 4/27/26 11/26/25 12/29/28
f 31/20/20 71/36/18 39/4/4
f 17/37/35 18/38/36 10/12/12 9/11/11
f 26/39/37 27/15/15 19/14/14 18/38/36
f 27/15/15 26/39/37 34/40/38 35/41/39
f 125/42/40 4/27/26 5/35/34 126/43/41
f 24/22/22 25/44/42 17/37/35 16/45/43
f 6/33/32 130/46/44 13/28/27 14/32/31
f 28/16/16 29/47/45 21/30/29 20/13/13
f 23/19/19 71/48/18 31/20/20
f 16/45/43 15/17/17 23/19/19 24/22/22
f 36/49/46 35/41/39 43/50/47 44/51/48
f 14/32/31 22/31/30 80/52/33
f 25/44/42 24/22/22 32/21/21 33/53/49
f 18/38/36 17/37/35 25/44/42 26/39/37
f 33/53/49 34/40/38 26/39/37 25/44/42
f 22/31/30 21/30/29 29/47/45 30/54/50
f 51/55/51 52/56/52 44/51/48 43/50/47
f 43/50/47 42/57/53 50/58/54 51/55/51
f 29/47/45 28/16/16 36/49/46 37/59/55
f 37/59/55 38/60/56 30/54/50 29/47/45
f 64/61/57 56/62/58 55/63/59 63/64/60
f 40/3/3 41/65/61 33/53/49 32/21/21
f 22/31/30 30/54/50 80/66/33
f 42/57/53 43/50/47 35/41/39 34/40/38
f 47/1/1 71/67/18 55/63/59
f 39/4/4 71/68/18 47/1/1
f 32/21/21 31/20/20 39/4/4 40/3/3
f 44/51/48 45/69/62 37/59/55 36/49/46
f 52/56/52 51/55/51 59/70/63 60/71/64
f 41/65/61 40/3/3 48/2/2 49/72/65
f 34/40/38 33/53/49 41/65/61 42/57/53
f 49/72/65 50/58/54 42/57/53 41/65/61
f 38/60/56 37/59/55 45/69/62 46/73/66
f 30/54/50 38/60/56 80/74/33
f 59/70/63 58/75/67 66/76/68 67/77/69
f 67/77/69 68/78/70 60/71/64 59/70/63
f 45/69/62 44/51/48 52/56/52 53/79/71
f 98/80/72 90/81/73 89/82/74 97/83/75
f 53/79/71 54/84/76 46/73/66 45/69/62
f 81/85/77 82/86/78 73/87/79 72/88/80
f 56/62/58 57/89/81 49/72/65 48/2/2
f 38/60/56 46/73/66 80/90/33
f 58/75/67 59/70/63 51/55/51 50/58/54
f 64/61/57 63/64/60 72/88/80 73/87/79
f 48/2/2 47/1/1 55/63/59 56/62/58
f 85/91/82 86/92/83 77/93/84 76/94/85
f 60/71/64 61/95/86 53/79/71 52/56/52
f 55/63/59 71/96/18 63/64/60
f 68/78/70 67/77/69 76/94/85 77/93/84
f 57/89/81 56/62/58 64/61/57 65/97/87
f 50/58/54 49/72/65 57/89/81 58/75/67
f 65/97/87 66/76/68 58/75/67 57/89/81
f 54/84/76 53/79/71 61/95/86 62/98/88
f 46/73/66 54/84/76 80/99/33
f 76/94/85 75/100/89 84/101/90 85/91/82
f 61/95/86 60/71/64 68/78/70 69/102/91
f 69/102/91 70/103/92 62/98/88 61/95/86
f 54/84/76 62/98/88 80/104/33
f 75/100/89 76/94/85 67/77/69 66/76/68
f 73/87/79 74/105/93 65/97/87 64/61/57
f 72/88/80 71/106/18 81/85/77
f 63/64/60 71/107/18 72/88/80
f 90/81/73 91/108/94 83/109/95 82/86/78
f 77/93/84 78/110/96 69/102/91 68/78/70
f 92/111/97 93/112/98 85/91/82 84/101/90
f 83/109/95 84/101/90 75/100/89 74/105/93
f 70/103/92 69/102/91 78/110/96 79/113/99
f 62/98/88 70/103/92 80/114/33
f 74/105/93 73/87/79 82/86/78 83/109/95
f 66/76/68 65/97/87 74/105/93 75/100/89
f 81/85/77 71/115/18 89/82/74
f 87/116/100 88/117/101 79/113/99 78/110/96
f 78/110/96 77/93/84 86/92/83 87/116/100
f 70/103/92 79/113/99 80/118/33
f 104/119/102 96/120/103 95/121/104 103/122/105
f 103/122/105 95/121/104 94/123/106 102/124/107
f 90/81/73 82/86/78 81/85/77 89/82/74
f 94/123/106 86/92/83 85/91/82 93/112/98
f 94/123/106 95/121/104 87/116/100 86/92/83
f 106/125/108 98/126/72 97/83/75 105/127/109
f 79/113/99 88/117/101 80/128/33
f 102/124/107 94/123/106 93/112/98 101/129/110
f 99/130/111 91/108/94 90/81/73 98/80/72
f 92/111/97 84/101/90 83/109/95 91/108/94
f 100/131/112 92/111/97 91/108/94 99/130/111
f 96/120/103 88/117/101 87/116/100 95/121/104
f 101/129/110 93/112/98 92/111/97 100/131/112
f 114/132/113 106/125/108 105/127/109 113/133/114
f 11/26/25 10/12/12 18/38/36 19/14/14
f 108/134/115 100/135/112 99/136/111 107/137/116
f 105/127/109 71/138/18 113/133/114
f 89/82/74 71/139/18 97/83/75
f 88/117/101 96/120/103 80/140/33
f 109/141/117 101/142/110 100/135/112 108/134/115
f 112/143/118 104/144/102 103/145/105 111/146/119
f 111/146/119 103/145/105 102/147/107 110/148/120
f 122/24/24 114/132/113 113/133/114 121/23/23
f 107/137/116 99/136/111 98/126/72 106/125/108
f 124/149/121 116/150/122 115/151/123 123/152/124
f 97/83/75 71/153/18 105/127/109
f 110/148/120 102/147/107 101/142/110 109/141/117
f 117/154/125 109/141/117 108/134/115 116/150/122
f 96/120/103 104/119/102 80/155/33
f 119/156/126 111/146/119 110/148/120 118/157/127
f 116/150/122 108/134/115 107/137/116 115/151/123
f 120/158/128 112/143/118 111/146/119 119/156/126
f 115/151/123 107/137/116 106/125/108 114/132/113
f 19/14/14 20/13/13 12/29/28 11/26/25
f 125/42/40 117/154/125 116/150/122 124/149/121
f 118/157/127 110/148/120 109/141/117 117/154/125
f 104/119/102 112/143/118 80/159/33
f 123/152/124 115/151/123 114/132/113 122/24/24
f 128/160/129 120/158/128 119/156/126 127/161/130
f 127/161/130 119/156/126 118/157/127 126/43/41
f 129/10/10 2/5/5 8/8/8 9/11/11
f 113/133/114 71/162/18 121/23/23
f 126/43/41 118/157/127 117/154/125 125/42/40
f 112/143/118 120/158/128 80/163/33
f 127/161/130 126/43/41 5/35/34 130/46/44
f 128/160/129 127/161/130 130/46/44 6/33/32
f 123/152/124 122/24/24 2/5/5 129/10/10
f 124/149/121 3/9/9 4/27/26 125/42/40
f 1/6/6 71/164/18 7/7/7
f 121/23/23 71/165/18 1/6/6
f 128/160/129 6/33/32 80/166/33
f 120/158/128 128/160/129 80/167/33
f 9/11/11 8/8/8 16/45/43 17/37/35
f 15/17/17 16/45/43 8/8/8 7/7/7
f 130/46/44 5/35/34 12/29/28 13/28/27
f 35/41/39 36/49/46 28/16/16 27/15/15
f 123/152/124 129/10/10 3/9/9 124/149/121
